<svg width="601" height="599" viewBox="0 0 601 599" fill="none" xmlns="http://www.w3.org/2000/svg">
<ellipse cx="323" cy="289" rx="100" ry="99" fill="white" stroke="#E5E8EB" stroke-linecap="round"/>
<path d="M390 288.5C390 325.777 359.777 356 322.5 356C285.223 356 255 325.777 255 288.5C255 251.223 285.223 221 322.5 221C359.785 221 390 251.223 390 288.5Z" fill="#2081E2"/>
<path d="M289.355 290.448L289.646 289.99L307.205 262.521C307.462 262.119 308.065 262.16 308.259 262.597C311.193 269.171 313.724 277.348 312.538 282.438C312.032 284.532 310.645 287.369 309.085 289.99C308.884 290.372 308.662 290.746 308.426 291.107C308.315 291.273 308.128 291.37 307.927 291.37H289.868C289.382 291.37 289.098 290.843 289.355 290.448Z" fill="white"/>
<path d="M367.623 295.552V299.9C367.623 300.15 367.47 300.372 367.248 300.469C365.889 301.052 361.236 303.188 359.301 305.878C354.363 312.751 350.591 322.578 342.158 322.578H306.976C294.507 322.578 284.403 312.439 284.403 299.928V299.526C284.403 299.193 284.673 298.923 285.006 298.923H304.618C305.007 298.923 305.291 299.283 305.256 299.665C305.118 300.941 305.354 302.245 305.957 303.43C307.122 305.795 309.535 307.272 312.143 307.272H321.852V299.692H312.254C311.762 299.692 311.47 299.124 311.755 298.722C311.859 298.562 311.977 298.396 312.101 298.208C313.01 296.918 314.307 294.914 315.597 292.633C316.477 291.093 317.33 289.449 318.017 287.799C318.156 287.501 318.267 287.196 318.378 286.897C318.565 286.37 318.759 285.878 318.898 285.386C319.036 284.969 319.147 284.533 319.258 284.123C319.584 282.722 319.723 281.238 319.723 279.699C319.723 279.095 319.695 278.464 319.64 277.861C319.612 277.202 319.529 276.543 319.446 275.885C319.39 275.302 319.286 274.726 319.175 274.123C319.036 273.242 318.842 272.369 318.62 271.488L318.544 271.155C318.378 270.552 318.239 269.976 318.045 269.373C317.497 267.479 316.866 265.635 316.2 263.908C315.957 263.221 315.68 262.562 315.402 261.904C314.993 260.912 314.577 260.01 314.196 259.157C314.002 258.769 313.835 258.415 313.669 258.055C313.481 257.646 313.287 257.236 313.093 256.848C312.954 256.55 312.795 256.272 312.684 255.995L311.498 253.804C311.332 253.505 311.609 253.152 311.935 253.242L319.355 255.253H319.376C319.39 255.253 319.397 255.26 319.404 255.26L320.382 255.53L321.457 255.835L321.852 255.946V251.536C321.852 249.407 323.558 247.68 325.666 247.68C326.72 247.68 327.677 248.11 328.364 248.81C329.05 249.511 329.48 250.468 329.48 251.536V258.082L330.271 258.304C330.333 258.325 330.396 258.353 330.451 258.395C330.646 258.54 330.923 258.755 331.277 259.019C331.554 259.241 331.852 259.511 332.213 259.788C332.927 260.364 333.78 261.106 334.716 261.959C334.966 262.174 335.209 262.396 335.431 262.618C336.637 263.741 337.99 265.059 339.28 266.515C339.64 266.925 339.994 267.341 340.355 267.778C340.715 268.221 341.097 268.658 341.429 269.095C341.866 269.678 342.338 270.281 342.747 270.912C342.941 271.21 343.163 271.516 343.35 271.814C343.878 272.611 344.342 273.437 344.786 274.262C344.973 274.643 345.167 275.059 345.334 275.468C345.826 276.571 346.215 277.695 346.464 278.818C346.541 279.061 346.596 279.324 346.624 279.56V279.616C346.707 279.948 346.735 280.302 346.762 280.663C346.873 281.814 346.818 282.965 346.568 284.123C346.464 284.616 346.326 285.08 346.159 285.573C345.993 286.044 345.826 286.537 345.611 287.001C345.195 287.965 344.703 288.929 344.12 289.831C343.933 290.164 343.711 290.517 343.489 290.85C343.246 291.204 342.997 291.537 342.775 291.863C342.47 292.279 342.144 292.716 341.811 293.104C341.513 293.513 341.208 293.923 340.875 294.283C340.41 294.831 339.966 295.351 339.502 295.85C339.224 296.176 338.926 296.509 338.621 296.807C338.323 297.14 338.017 297.439 337.74 297.716C337.275 298.181 336.887 298.541 336.561 298.839L335.798 299.54C335.687 299.637 335.542 299.692 335.389 299.692H329.48V307.272H336.915C338.579 307.272 340.16 306.683 341.436 305.601C341.873 305.22 343.78 303.569 346.034 301.079C346.111 300.996 346.208 300.934 346.319 300.906L366.853 294.97C367.235 294.859 367.623 295.15 367.623 295.552Z" fill="white"/>
<ellipse cx="323" cy="289.5" rx="186" ry="185.5" stroke="#2BCDE4" stroke-width="3" stroke-linecap="round" stroke-dasharray="0.25 10"/>
<ellipse cx="323" cy="288" rx="233" ry="232" stroke="#2BCDE4" stroke-width="2" stroke-linecap="round"/>
<path d="M174 286.5C174 368.514 240.71 435 323 435C405.29 435 472 368.514 472 286.5C472 243.816 453.931 205.338 425 178.25" stroke="#2BCDE4" stroke-width="2" stroke-linecap="round"/>
<circle cx="173.5" cy="285.5" r="6.5" fill="#2BCDE4"/>
<circle cx="322.5" cy="6.5" r="6.5" transform="rotate(90 322.5 6.5)" fill="#2BCDE4"/>
<circle cx="422.5" cy="176.5" r="6.5" fill="#2BCDE4"/>
<circle cx="529.5" cy="481.5" r="6.5" transform="rotate(90 529.5 481.5)" fill="#2BCDE4"/>
<path d="M322.673 6.99999C167.109 6.99998 41 133.48 41 289.5C41 445.52 167.109 572 322.673 572C403.635 572 476.619 537.741 528 482.889" stroke="#2BCDE4" stroke-width="3" stroke-linecap="round" stroke-dasharray="0.25 10"/>
<circle cx="76" cy="440" r="34.5" fill="white" stroke="#E5E8EB"/>
<path d="M55 434.4C55 433.24 55.9402 432.3 57.1 432.3H66.2C67.3598 432.3 68.3 433.24 68.3 434.4V445.6C68.3 446.76 67.3598 447.7 66.2 447.7H57.1C55.9402 447.7 55 446.76 55 445.6V434.4Z" fill="#1868B7"/>
<path d="M64.1 432.159L76.9637 423.882C78.3612 422.983 80.2 423.987 80.2 425.648V454.352C80.2 456.013 78.3612 457.017 76.9637 456.118L64.1 447.841V432.159Z" fill="#2BCDE4"/>
<path d="M84.4 438.25C84.4 436.897 85.4969 435.8 86.85 435.8C88.2031 435.8 89.3 436.897 89.3 438.25V442.45C89.3 443.803 88.2031 444.9 86.85 444.9C85.4969 444.9 84.4 443.803 84.4 442.45V438.25Z" fill="#1868B7"/>
<path d="M92.8 435.45C92.8 434.097 93.897 433 95.25 433C96.6031 433 97.7001 434.097 97.7001 435.45V445.95C97.7001 447.303 96.6031 448.4 95.25 448.4C93.897 448.4 92.8 447.303 92.8 445.95V435.45Z" fill="#1868B7"/>
<circle cx="539" cy="149" r="61.5" fill="white" stroke="#E5E8EB"/>
<path d="M538.783 121.658H547.009V150.446H538.783V121.658Z" fill="#1868B7"/>
<path d="M547.01 150.446C547.01 156.125 542.407 160.728 536.728 160.728C531.05 160.728 526.447 156.125 526.447 150.446C526.447 144.768 531.05 140.165 536.728 140.165C542.407 140.165 547.01 144.768 547.01 150.446Z" fill="#2BCDE4"/>
<path d="M507.939 125.771H516.164V154.559H507.939V125.771Z" fill="#1868B7"/>
<path d="M507.939 118.668C507.939 116.837 509.27 115.279 511.079 114.993L542.709 109.999C544.967 109.642 547.009 111.388 547.009 113.673V125.771L507.939 131.94V118.668Z" fill="#2BCDE4"/>
<path d="M516.163 154.56C516.163 160.238 511.56 164.841 505.882 164.841C500.203 164.841 495.6 160.238 495.6 154.56C495.6 148.881 500.203 144.278 505.882 144.278C511.56 144.278 516.163 148.881 516.163 154.56Z" fill="#2BCDE4"/>
<path d="M557.291 150.446H565.517V179.235H557.291V150.446Z" fill="#1868B7"/>
<path d="M557.291 142.266C557.291 141.053 558.168 140.019 559.364 139.819L577.636 136.774C579.903 136.396 581.967 138.145 581.967 140.443V149.351C581.967 151.17 580.653 152.722 578.859 153.021L557.291 156.615V142.266Z" fill="#2BCDE4"/>
<path d="M565.516 179.235C565.516 184.913 560.913 189.517 555.235 189.517C549.556 189.517 544.953 184.913 544.953 179.235C544.953 173.557 549.556 168.953 555.235 168.953C560.913 168.953 565.516 173.557 565.516 179.235Z" fill="#2BCDE4"/>
<circle cx="62" cy="285" r="61.5" fill="white" stroke="#E5E8EB"/>
<path d="M98.8282 284.814C98.8282 305.256 82.2564 321.828 61.8141 321.828C41.3718 321.828 24.8 305.256 24.8 284.814C24.8 264.372 41.3718 247.8 61.8141 247.8C82.2564 247.8 98.8282 264.372 98.8282 284.814Z" fill="#2BCDE4"/>
<path d="M98.8282 284.814C98.8282 305.256 82.2564 321.828 61.8141 321.828C41.3718 321.828 24.8 305.256 24.8 284.814C24.8 264.372 41.3718 247.8 61.8141 247.8C82.2564 247.8 98.8282 264.372 98.8282 284.814Z" fill="url(#paint0_linear)"/>
<path d="M98.8282 284.814C98.8282 305.256 82.2564 321.828 61.8141 321.828C41.3718 321.828 24.8 305.256 24.8 284.814C24.8 264.372 41.3718 247.8 61.8141 247.8C82.2564 247.8 98.8282 264.372 98.8282 284.814Z" fill="#2BCDE4"/>
<path d="M98.8282 284.814C98.8282 305.256 82.2564 321.828 61.8141 321.828C41.3718 321.828 24.8 305.256 24.8 284.814C24.8 264.372 41.3718 247.8 61.8141 247.8C82.2564 247.8 98.8282 264.372 98.8282 284.814Z" fill="url(#paint1_linear)"/>
<path d="M98.8282 284.814C98.8282 305.256 82.2564 321.828 61.8141 321.828C41.3718 321.828 24.8 305.256 24.8 284.814C24.8 264.372 41.3718 247.8 61.8141 247.8C82.2564 247.8 98.8282 264.372 98.8282 284.814Z" fill="#2BCDE4"/>
<path fill-rule="evenodd" clip-rule="evenodd" d="M89.4031 260.118H72.127C68.7028 260.118 65.927 257.342 65.927 253.918V248.006C75.2251 249.034 83.4851 253.506 89.4031 260.118Z" fill="#1868B7"/>
<path fill-rule="evenodd" clip-rule="evenodd" d="M44.9784 251.82C45.2279 252.492 45.3643 253.219 45.3643 253.978V260.085C45.3643 263.509 48.1401 266.285 51.5643 266.285H59.7277C63.1518 266.285 65.9277 269.061 65.9277 272.485V278.592C65.9277 282.016 63.1518 284.792 59.7277 284.792H55.677C52.2528 284.792 49.477 287.568 49.477 290.992V297.099C49.477 300.523 46.7012 303.299 43.277 303.299H29.7522C26.6029 297.855 24.8004 291.534 24.8004 284.792C24.8004 270.412 32.9999 257.948 44.9784 251.82Z" fill="#1868B7"/>
<path fill-rule="evenodd" clip-rule="evenodd" d="M82.2817 315.659C92.2551 309.028 98.8282 297.689 98.8282 284.814C98.8282 282.712 98.653 280.651 98.3164 278.645L90.634 278.645C87.2098 278.645 84.434 281.421 84.434 284.845V290.952C84.434 294.376 81.6581 297.152 78.234 297.152H70.0706C66.6464 297.152 63.8706 299.928 63.8706 303.352V309.459C63.8706 312.883 66.6464 315.659 70.0706 315.659H82.2817Z" fill="#1868B7"/>
<circle cx="220" cy="537" r="61.5" fill="white" stroke="#E5E8EB"/>
<path fill-rule="evenodd" clip-rule="evenodd" d="M214.744 505.425C196.417 509.761 185.075 528.133 189.411 546.46C193.747 564.787 212.119 576.129 230.446 571.793C248.773 567.457 260.115 549.085 255.779 530.758C251.443 512.431 233.071 501.089 214.744 505.425ZM201.457 527.981C196.458 529.164 193.365 534.174 194.548 539.173C195.73 544.171 200.741 547.264 205.739 546.082C210.737 544.899 213.831 539.889 212.648 534.89C211.465 529.892 206.455 526.799 201.457 527.981Z" fill="#2BCDE4"/>
<path d="M209.183 558.814C208.117 554.307 210.906 549.789 215.413 548.723C219.919 547.657 224.437 550.446 225.503 554.953C226.569 559.459 223.78 563.977 219.274 565.043C214.767 566.109 210.249 563.32 209.183 558.814Z" fill="#1868B7"/>
<path d="M229.749 551.852C228.683 547.346 231.472 542.828 235.979 541.762C240.485 540.696 245.003 543.485 246.069 547.991C247.136 552.498 244.347 557.015 239.84 558.082C235.333 559.148 230.816 556.359 229.749 551.852Z" fill="#1868B7"/>
<path d="M231.515 530.18C230.52 525.974 233.123 521.757 237.329 520.762C241.536 519.767 245.752 522.37 246.747 526.576C247.742 530.782 245.139 534.999 240.933 535.994C236.727 536.989 232.51 534.386 231.515 530.18Z" fill="#1868B7"/>
<path d="M212.235 521.529C211.169 517.022 213.958 512.505 218.464 511.439C222.971 510.372 227.489 513.161 228.555 517.668C229.621 522.175 226.832 526.692 222.326 527.758C217.819 528.825 213.301 526.036 212.235 521.529Z" fill="#1868B7"/>
<path d="M188.899 507.033C189.47 503.137 192.022 498.109 193.484 495.472C193.939 494.651 195.077 494.666 195.51 495.499C196.9 498.175 199.314 503.271 199.779 507.181C200.3 511.57 197.544 518.519 197.544 518.519L190.824 518.427C190.824 518.427 188.258 511.406 188.899 507.033Z" fill="#2BCDE4"/>
<path d="M187.737 518.311C187.749 517.445 188.461 516.752 189.327 516.764L199.345 516.9C200.211 516.911 200.904 517.623 200.892 518.49L200.271 564.206C200.221 567.839 197.237 570.744 193.604 570.694C189.971 570.645 187.067 567.66 187.116 564.027L187.737 518.311Z" fill="#1868B7"/>
<path fill-rule="evenodd" clip-rule="evenodd" d="M189.139 505.72C190 502.067 192.167 497.82 193.47 495.471C193.925 494.649 195.063 494.665 195.496 495.498C196.741 497.896 198.809 502.236 199.56 505.925C198.071 506.826 196.288 507.339 194.379 507.313C192.426 507.287 190.622 506.701 189.139 505.72Z" fill="#1868B7"/>
<circle cx="199" cy="36" r="29.5" fill="white" stroke="#E5E8EB"/>
<path d="M201.457 14.5425C201.457 15.9467 200.319 17.085 198.914 17.085C197.51 17.085 196.372 15.9467 196.372 14.5425C196.372 13.1383 197.51 12 198.914 12C200.319 12 201.457 13.1383 201.457 14.5425Z" fill="#1868B7"/>
<path d="M195.524 52.364H202.304V57.9198C202.304 58.9139 201.499 59.7198 200.504 59.7198H197.324C196.33 59.7198 195.524 58.9139 195.524 57.9198V52.364Z" fill="#1868B7"/>
<path d="M187.737 27.6805C186.484 25.9546 187.506 23.5646 189.603 23.1767L193.246 22.5028C194.503 22.2703 195.431 21.1979 195.481 19.9205L195.563 17.8176H199.017H202.471L202.554 19.939C202.603 21.2066 203.522 22.2719 204.768 22.5073L208.269 23.1682C210.362 23.5632 211.392 25.9393 210.165 27.6805C208.223 30.4386 205.924 33.9968 206.465 37.662C207.054 41.652 209.02 41.4111 209.547 45.4084C209.887 47.9847 209.176 50.9885 208.699 52.6131C208.487 53.3351 207.815 53.8039 207.062 53.8039H190.972C190.219 53.8039 189.547 53.3351 189.335 52.6131C188.858 50.9885 188.148 47.9847 188.487 45.4084C189.014 41.4111 190.981 41.652 191.569 37.662C192.11 33.9968 189.738 30.4386 187.737 27.6805Z" fill="#2BCDE4"/>
<path d="M195.494 18.4599C195.494 17.4658 196.3 16.6599 197.294 16.6599H200.744C201.738 16.6599 202.544 17.4658 202.544 18.4599V19.6599H195.494V18.4599Z" fill="#1868B7"/>
<path fill-rule="evenodd" clip-rule="evenodd" d="M192.014 37.0599C192.014 36.3971 192.552 35.8599 193.214 35.8599H193.257C193.919 35.8599 194.457 36.3971 194.457 37.0599C194.457 37.7226 193.919 38.2599 193.257 38.2599H193.214C192.552 38.2599 192.014 37.7226 192.014 37.0599ZM197.672 37.0599C197.672 36.3971 198.21 35.8599 198.872 35.8599H198.957C199.619 35.8599 200.157 36.3971 200.157 37.0599C200.157 37.7226 199.619 38.2599 198.957 38.2599H198.872C198.21 38.2599 197.672 37.7226 197.672 37.0599ZM203.372 37.0599C203.372 36.3971 203.91 35.8599 204.572 35.8599H204.614C205.277 35.8599 205.814 36.3971 205.814 37.0599C205.814 37.7226 205.277 38.2599 204.614 38.2599H204.572C203.91 38.2599 203.372 37.7226 203.372 37.0599Z" fill="#1868B7"/>
<circle cx="182" cy="167" r="29.5" fill="white" stroke="#E5E8EB"/>
<path fill-rule="evenodd" clip-rule="evenodd" d="M168.13 163.493C168.13 161.836 169.473 160.493 171.13 160.493H200.754C202.411 160.493 203.754 161.836 203.754 163.493V167.732C203.503 167.658 203.237 167.618 202.962 167.618C201.432 167.618 200.192 168.858 200.192 170.388C200.192 171.919 201.432 173.159 202.962 173.159C203.237 173.159 203.503 173.119 203.754 173.044V176.888C203.754 178.545 202.411 179.888 200.754 179.888H171.13C169.473 179.888 168.13 178.545 168.13 176.888V172.893C168.49 173.064 168.892 173.159 169.317 173.159C170.848 173.159 172.088 171.919 172.088 170.388C172.088 168.858 170.848 167.618 169.317 167.618C168.892 167.618 168.49 167.713 168.13 167.884V163.493Z" fill="#1868B7"/>
<path fill-rule="evenodd" clip-rule="evenodd" d="M160.403 157.439C160.402 155.783 161.743 154.438 163.4 154.436L193.024 154.403C194.681 154.401 196.026 155.743 196.027 157.4L196.032 161.64C195.781 161.565 195.515 161.525 195.24 161.526C193.71 161.527 192.471 162.769 192.473 164.3C192.474 165.83 193.716 167.069 195.246 167.067C195.522 167.067 195.787 167.027 196.038 166.952L196.042 170.795C196.044 172.452 194.702 173.797 193.046 173.799L163.422 173.831C161.765 173.833 160.42 172.492 160.418 170.835L160.414 166.839C160.774 167.01 161.177 167.105 161.602 167.104C163.132 167.103 164.371 165.861 164.369 164.331C164.368 162.8 163.126 161.561 161.595 161.563C161.17 161.563 160.768 161.66 160.408 161.831L160.403 157.439Z" fill="#2BCDE4"/>
<path d="M170.176 165.665C169.283 165.666 168.559 164.943 168.558 164.051C168.557 163.158 169.28 162.434 170.173 162.433L179.87 162.422C180.763 162.421 181.487 163.144 181.488 164.036C181.489 164.929 180.766 165.653 179.874 165.654L170.176 165.665Z" fill="#1868B7"/>
<path fill-rule="evenodd" clip-rule="evenodd" d="M187.443 156.318C188.106 156.318 188.643 156.855 188.643 157.518L188.643 157.554C188.643 158.217 188.106 158.754 187.443 158.754C186.781 158.754 186.243 158.217 186.243 157.554L186.243 157.518C186.243 156.855 186.781 156.318 187.443 156.318ZM187.443 162.881C188.106 162.881 188.643 163.419 188.643 164.081L188.643 164.154C188.643 164.817 188.106 165.354 187.443 165.354C186.781 165.354 186.243 164.817 186.243 164.154L186.243 164.081C186.243 163.419 186.781 162.881 187.443 162.881ZM187.443 169.481C188.106 169.481 188.643 170.019 188.643 170.681L188.643 170.718C188.643 171.38 188.106 171.918 187.443 171.918C186.781 171.918 186.243 171.38 186.243 170.718L186.243 170.681C186.243 170.019 186.781 169.481 187.443 169.481Z" fill="#1868B7"/>
<circle cx="320" cy="435" r="29.5" fill="white" stroke="#E5E8EB"/>
<path d="M305 424.2C305 423.206 305.806 422.4 306.8 422.4H333.8C334.794 422.4 335.6 423.206 335.6 424.2V445.8C335.6 446.794 334.794 447.6 333.8 447.6H306.8C305.806 447.6 305 446.794 305 445.8V424.2Z" fill="#2BCDE4"/>
<path d="M325.328 433.33C325.906 433.68 325.906 434.52 325.328 434.87L316.566 440.173C315.966 440.536 315.2 440.104 315.2 439.403L315.2 428.797C315.2 428.096 315.966 427.664 316.566 428.027L325.328 433.33Z" fill="#1868B7"/>
<circle cx="434" cy="550" r="29.5" fill="white" stroke="#E5E8EB"/>
<path d="M413 544C413 543.006 413.806 542.2 414.8 542.2H453.8C454.794 542.2 455.6 543.006 455.6 544V556.6C455.6 557.594 454.794 558.4 453.8 558.4H414.8C413.806 558.4 413 557.594 413 556.6V544Z" fill="#2BCDE4"/>
<path d="M441.186 550.37C441.186 551.695 440.111 552.77 438.786 552.77C437.461 552.77 436.386 551.695 436.386 550.37C436.386 549.044 437.461 547.97 438.786 547.97C440.111 547.97 441.186 549.044 441.186 550.37Z" fill="#1868B7"/>
<path d="M415.886 550.37C415.886 549.044 416.96 547.97 418.286 547.97H431.396C432.721 547.97 433.796 549.044 433.796 550.37C433.796 551.695 432.721 552.77 431.396 552.77H418.286C416.96 552.77 415.886 551.695 415.886 550.37Z" fill="#1868B7"/>
<path d="M443.745 550.37C443.745 549.044 444.82 547.97 446.145 547.97H450.3C451.626 547.97 452.7 549.044 452.7 550.37C452.7 551.695 451.626 552.77 450.3 552.77H446.145C444.82 552.77 443.745 551.695 443.745 550.37Z" fill="#1868B7"/>
<circle cx="509" cy="290" r="29.5" fill="white" stroke="#E5E8EB"/>
<path d="M500 278C500 277.006 500.806 276.2 501.8 276.2H521C521.994 276.2 522.8 277.006 522.8 278V306.8C522.8 307.794 521.994 308.6 521 308.6H501.8C500.806 308.6 500 307.794 500 306.8V278Z" fill="#1868B7"/>
<path d="M495.2 273.2C495.2 272.206 496.006 271.4 497 271.4H516.2C517.194 271.4 518 272.206 518 273.2V302C518 302.994 517.194 303.8 516.2 303.8H497C496.006 303.8 495.2 302.994 495.2 302V273.2Z" fill="#2BCDE4"/>
<path d="M498.2 275.6C498.2 274.937 498.737 274.4 499.4 274.4H513.8C514.463 274.4 515 274.937 515 275.6V291.2C515 291.863 514.463 292.4 513.8 292.4H499.4C498.737 292.4 498.2 291.863 498.2 291.2V275.6Z" fill="#1868B7"/>
<path d="M498.2 297.5C498.2 296.34 499.14 295.4 500.3 295.4H506.3C507.46 295.4 508.4 296.34 508.4 297.5C508.4 298.66 507.46 299.6 506.3 299.6H500.3C499.14 299.6 498.2 298.66 498.2 297.5Z" fill="#1868B7"/>
<circle cx="320" cy="105" r="29.5" fill="white" stroke="#E5E8EB"/>
<path d="M337.82 104.91C337.82 114.801 329.802 122.82 319.91 122.82C310.019 122.82 302 114.801 302 104.91C302 95.0186 310.019 87 319.91 87C329.802 87 337.82 95.0186 337.82 104.91Z" fill="#2BCDE4"/>
<path d="M337.82 104.91C337.82 114.801 329.802 122.82 319.91 122.82C310.019 122.82 302 114.801 302 104.91C302 95.0186 310.019 87 319.91 87C329.802 87 337.82 95.0186 337.82 104.91Z" fill="url(#paint2_linear)"/>
<path d="M337.82 104.91C337.82 114.801 329.802 122.82 319.91 122.82C310.019 122.82 302 114.801 302 104.91C302 95.0186 310.019 87 319.91 87C329.802 87 337.82 95.0186 337.82 104.91Z" fill="#2BCDE4"/>
<path d="M337.82 104.91C337.82 114.801 329.802 122.82 319.91 122.82C310.019 122.82 302 114.801 302 104.91C302 95.0186 310.019 87 319.91 87C329.802 87 337.82 95.0186 337.82 104.91Z" fill="url(#paint3_linear)"/>
<path d="M337.82 104.91C337.82 114.801 329.802 122.82 319.91 122.82C310.019 122.82 302 114.801 302 104.91C302 95.0186 310.019 87 319.91 87C329.802 87 337.82 95.0186 337.82 104.91Z" fill="#2BCDE4"/>
<path d="M318.969 98.5198C319.589 98.0875 320.412 98.0875 321.031 98.5198L323.47 100.224L325.845 102.017C326.447 102.473 326.702 103.255 326.482 103.978L325.615 106.824L324.643 109.637C324.396 110.351 323.73 110.834 322.975 110.848L320 110.904L317.025 110.848C316.27 110.834 315.604 110.351 315.357 109.637L314.385 106.824L313.519 103.978C313.299 103.255 313.553 102.473 314.155 102.017L316.53 100.224L318.969 98.5198Z" fill="#1868B7"/>
<path fill-rule="evenodd" clip-rule="evenodd" d="M318.97 94.0802C319.589 94.5126 320.412 94.5126 321.031 94.0802L323.47 92.3764L325.845 90.5827C326.447 90.1275 326.702 89.3447 326.482 88.6223L326.351 88.1931C324.352 87.4225 322.181 87 319.91 87C317.717 87 315.615 87.3944 313.673 88.1161L313.519 88.6223C313.299 89.3447 313.553 90.1275 314.156 90.5827L316.53 92.3764L318.97 94.0802Z" fill="#1868B7"/>
<path fill-rule="evenodd" clip-rule="evenodd" d="M329.991 100.921C329.755 101.638 329.992 102.427 330.584 102.895L332.918 104.741L335.319 106.498C335.929 106.944 336.752 106.963 337.38 106.544L337.754 106.295C337.916 104.159 337.696 101.958 337.042 99.7838C336.411 97.683 335.428 95.7839 334.178 94.1315L333.649 94.1297C332.894 94.127 332.217 94.596 331.955 95.304L330.92 98.0941L329.991 100.921Z" fill="#1868B7"/>
<path fill-rule="evenodd" clip-rule="evenodd" d="M309.765 100.921C310.001 101.638 309.764 102.427 309.172 102.895L306.838 104.741L304.437 106.498C303.828 106.944 303.005 106.963 302.376 106.544L302.003 106.295C301.84 104.159 302.061 101.958 302.714 99.7838C303.346 97.683 304.328 95.7839 305.578 94.1315L306.108 94.1297C306.863 94.127 307.539 94.596 307.802 95.304L308.836 98.0941L309.765 100.921Z" fill="#1868B7"/>
<path fill-rule="evenodd" clip-rule="evenodd" d="M312.982 113.258C313.737 113.259 314.412 113.73 314.671 114.439L315.695 117.233L316.614 120.063C316.848 120.781 316.608 121.569 316.014 122.035L315.661 122.312C313.581 121.799 311.559 120.901 309.698 119.601C307.9 118.345 306.403 116.818 305.224 115.114L305.388 114.61C305.621 113.892 306.278 113.396 307.032 113.368L310.006 113.258L312.982 113.258Z" fill="#1868B7"/>
<path fill-rule="evenodd" clip-rule="evenodd" d="M326.833 113.233C326.078 113.233 325.403 113.704 325.143 114.413L324.119 117.207L323.2 120.037C322.967 120.756 323.207 121.543 323.801 122.009L324.154 122.286C326.233 121.773 328.256 120.876 330.117 119.575C331.915 118.319 333.412 116.792 334.591 115.088L334.427 114.585C334.193 113.866 333.537 113.37 332.782 113.342L329.808 113.232L326.833 113.233Z" fill="#1868B7"/>
<defs>
<linearGradient id="paint0_linear" x1="24.8" y1="247.8" x2="67.397" y2="278.565" gradientUnits="userSpaceOnUse">
<stop stop-color="#1B70C4"/>
<stop offset="1" stop-color="#2081E2" stop-opacity="0"/>
</linearGradient>
<linearGradient id="paint1_linear" x1="24.8" y1="247.8" x2="67.397" y2="278.565" gradientUnits="userSpaceOnUse">
<stop stop-color="#1B70C4"/>
<stop offset="1" stop-color="#2081E2" stop-opacity="0"/>
</linearGradient>
<linearGradient id="paint2_linear" x1="302" y1="87" x2="322.612" y2="101.886" gradientUnits="userSpaceOnUse">
<stop stop-color="#1B70C4"/>
<stop offset="1" stop-color="#2081E2" stop-opacity="0"/>
</linearGradient>
<linearGradient id="paint3_linear" x1="302" y1="87" x2="322.612" y2="101.886" gradientUnits="userSpaceOnUse">
<stop stop-color="#1B70C4"/>
<stop offset="1" stop-color="#2081E2" stop-opacity="0"/>
</linearGradient>
</defs>
</svg>
