<svg width="60" height="60" viewBox="0 0 60 60" fill="none" xmlns="http://www.w3.org/2000/svg">
<path d="M7.06816 30.1421L30.5 54L53.9318 30.1421C56.5366 27.49 58 23.8929 58 20.1421C58 12.3316 51.7814 6 44.1104 6C40.4267 6 36.8938 7.48997 34.289 10.1421L30.5 14L26.711 10.1421C24.1062 7.48997 20.5733 6 16.8896 6C9.21858 6 3 12.3316 3 20.1421C3 23.8929 4.46336 27.49 7.06816 30.1421Z" fill="#2BCDE4"/>
<path fill-rule="evenodd" clip-rule="evenodd" d="M40 30C40 31.1046 39.1046 32 38 32L22 32C20.8954 32 20 31.1046 20 30C20 28.8954 20.8954 28 22 28L38 28C39.1046 28 40 28.8954 40 30Z" fill="#1868B7"/>
<path fill-rule="evenodd" clip-rule="evenodd" d="M30 20C31.1046 20 32 20.8954 32 22L32 38C32 39.1046 31.1046 40 30 40C28.8954 40 28 39.1046 28 38L28 22C28 20.8954 28.8954 20 30 20Z" fill="#1868B7"/>
</svg>
