<svg xmlns="http://www.w3.org/2000/svg" width="60" height="60" fill="none" viewBox="0 0 60 60"><path fill="#1868B7" stroke="#1868B7" d="M7.73173 29.708C7.89281 29.2727 8.50851 29.2727 8.66958 29.708L8.97681 30.5383C9.12874 30.9489 9.45245 31.2726 9.86303 31.4245L10.6933 31.7317C11.1286 31.8928 11.1286 32.5085 10.6933 32.6696L9.86303 32.9768C9.45245 33.1287 9.12874 33.4525 8.97681 33.863L8.66958 34.6933C8.5085 35.1286 7.89281 35.1286 7.73173 34.6933L7.42451 33.863C7.27258 33.4525 6.94886 33.1287 6.53828 32.9768L5.70803 32.6696C5.27272 32.5085 5.27272 31.8928 5.70802 31.7317L6.53828 31.4245C6.94886 31.2726 7.27258 30.9489 7.42451 30.5383L7.73173 29.708Z"/><path fill="#1868B7" stroke="#1868B7" d="M48.2317 24.8396C48.3928 24.4043 49.0085 24.4043 49.1696 24.8396L49.4768 25.6699C49.6287 26.0805 49.9525 26.4042 50.363 26.5561L51.1933 26.8633C51.6286 27.0244 51.6286 27.6401 51.1933 27.8012L50.363 28.1084C49.9525 28.2603 49.6287 28.584 49.4768 28.9946L49.1696 29.8249C49.0085 30.2602 48.3928 30.2602 48.2317 29.8249L47.9245 28.9946C47.7726 28.584 47.4489 28.2603 47.0383 28.1084L46.208 27.8012C45.7727 27.6401 45.7727 27.0244 46.208 26.8633L47.0383 26.5561C47.4489 26.4042 47.7726 26.0805 47.9245 25.6699L48.2317 24.8396Z"/><path fill="#1868B7" stroke="#1868B7" d="M17.7317 5.70803C17.8928 5.27272 18.5085 5.27272 18.6696 5.70802L18.9768 6.53828C19.1287 6.94886 19.4525 7.27258 19.863 7.42451L20.6933 7.73173C21.1286 7.89281 21.1286 8.50851 20.6933 8.66958L19.863 8.97681C19.4525 9.12874 19.1287 9.45245 18.9768 9.86303L18.6696 10.6933C18.5085 11.1286 17.8928 11.1286 17.7317 10.6933L17.4245 9.86303C17.2726 9.45245 16.9489 9.12874 16.5383 8.97681L15.708 8.66958C15.2727 8.5085 15.2727 7.89281 15.708 7.73173L16.5383 7.42451C16.9489 7.27258 17.2726 6.94886 17.4245 6.53828L17.7317 5.70803Z"/><line x1="30" x2="30" y1="8" y2="25" stroke="#1868B7" stroke-width="3"/><path fill="#2BCDE4" d="M28.2936 21.9569C29.0735 20.681 30.9265 20.6811 31.7064 21.9569L51.5224 54.3723C52.3371 55.705 51.378 57.4155 49.816 57.4155H10.184C8.62206 57.4155 7.66294 55.705 8.47764 54.3723L28.2936 21.9569Z"/><path fill="#2BCDE4" d="M39.8718 8.31042C41.8393 8.83636 41.8536 11.6232 39.8916 12.1693L30.592 14.7577C29.3231 15.1109 28.0653 14.1625 28.0557 12.8454L28.0189 7.76135C28.0094 6.44082 29.2596 5.47368 30.5354 5.81471L39.8718 8.31042Z"/><path fill="#1868B7" d="M37 57.5L23 57.5L23 49.5C23 45.634 26.134 42.5 30 42.5C33.866 42.5 37 45.634 37 49.5L37 57.5Z"/></svg>