<svg xmlns="http://www.w3.org/2000/svg" width="60" height="60" fill="none" viewBox="0 0 60 60"><rect width="17" height="13" x="38" y="17" fill="#2BCDE4" rx="2" transform="rotate(-180 38 17)"/><rect width="17" height="13" x="38" y="57" fill="#2BCDE4" rx="2" transform="rotate(-180 38 57)"/><path fill="#1868B7" d="M50 30.5C50 41.8218 40.8218 51 29.5 51C18.1782 51 9 41.8218 9 30.5C9 19.1782 18.1782 10 29.5 10C40.8218 10 50 19.1782 50 30.5Z"/><path fill="#2BCDE4" d="M45 30.5C45 39.0604 38.0604 46 29.5 46C20.9396 46 14 39.0604 14 30.5C14 21.9396 20.9396 15 29.5 15C38.0604 15 45 21.9396 45 30.5Z"/><path stroke="#1868B7" stroke-linecap="round" stroke-width="3" d="M29.5 20V31H38.5"/></svg>