<svg xmlns="http://www.w3.org/2000/svg" width="60" height="60" fill="none" viewBox="0 0 60 60"><path fill="#2BCDE4" d="M41.2573 15.8714C41.2573 19.235 38.2807 23.5635 35.9573 26.8548C33.948 29.7009 32.8089 31.7714 29.9001 31.7714C26.9913 31.7714 25.8523 29.7009 23.843 26.8548C21.5195 23.5635 18.543 19.235 18.543 15.8714C18.543 9.59905 23.6277 3 29.9001 3C36.1725 3 41.2573 9.59905 41.2573 15.8714Z"/><path fill="#1868B7" fill-rule="evenodd" d="M29.9001 56C36.1725 56 41.2573 50.9152 41.2573 44.6429C41.2573 38.3705 36.1725 33.2857 29.9001 33.2857C23.6277 33.2857 18.543 38.3705 18.543 44.6429C18.543 50.9152 23.6277 56 29.9001 56ZM29.9001 50.7C33.2454 50.7 35.9573 47.9881 35.9573 44.6429C35.9573 41.2976 33.2454 38.5857 29.9001 38.5857C26.5548 38.5857 23.843 41.2976 23.843 44.6429C23.843 47.9881 26.5548 50.7 29.9001 50.7Z" clip-rule="evenodd"/><rect width="8.329" height="8.329" x="25.357" y="33.286" fill="#2BCDE4" rx="2"/><rect width="31.043" height="8.329" x="14" y="27.229" fill="#1868B7" rx="4.164"/></svg>