<svg xmlns="http://www.w3.org/2000/svg" width="60" height="60" fill="none" viewBox="0 0 60 60"><path fill="#2BCDE4" d="M12.9668 31.7571L30.4739 15.4714L47.9811 31.7571V55C47.9811 56.1046 47.0857 57 45.9811 57H14.9668C13.8622 57 12.9668 56.1046 12.9668 55V31.7571Z"/><path fill="#2BCDE4" d="M48 29L37 29L37 14C37 12.8954 37.8954 12 39 12L46 12C47.1046 12 48 12.8954 48 14L48 29Z"/><path fill="#1868B7" d="M37.3953 57L23.5524 57L23.5524 42.7143C23.5524 41.6097 24.4478 40.7143 25.5524 40.7143L35.3953 40.7143C36.4998 40.7143 37.3953 41.6097 37.3953 42.7143L37.3953 57Z"/><path fill="#1868B7" fill-rule="evenodd" d="M31.8543 12.7167C31.0816 11.9797 29.8662 11.9797 29.0934 12.7167L7.6236 33.1957C6.31773 34.4413 7.19935 36.6429 9.00402 36.6429H12.7411L29.0934 21.0453C29.8662 20.3082 31.0816 20.3082 31.8543 21.0453L48.2066 36.6429H51.9437C53.7484 36.6429 54.63 34.4413 53.3241 33.1957L31.8543 12.7167Z" clip-rule="evenodd"/><path fill="#1868B7" d="M35.759 32.9786C35.759 35.9017 33.3893 38.2714 30.4662 38.2714C27.543 38.2714 25.1733 35.9017 25.1733 32.9786C25.1733 30.0554 27.543 27.6857 30.4662 27.6857C33.3893 27.6857 35.759 30.0554 35.759 32.9786Z"/><path fill="#1868B7" d="M41.6485 3.5345C41.9706 2.66389 43.202 2.66389 43.5242 3.5345L43.8288 4.35777C43.9301 4.63149 44.1459 4.8473 44.4196 4.94858L45.2429 5.25322C46.1135 5.57538 46.1135 6.80677 45.2429 7.12892L44.4196 7.43356C44.1459 7.53484 43.9301 7.75065 43.8288 8.02437L43.5242 8.84764C43.202 9.71826 41.9706 9.71826 41.6485 8.84764L41.3438 8.02437C41.2426 7.75065 41.0268 7.53484 40.753 7.43356L39.9298 7.12892C39.0591 6.80676 39.0592 5.57538 39.9298 5.25322L40.753 4.94858C41.0268 4.8473 41.2426 4.63149 41.3438 4.35777L41.6485 3.5345Z"/></svg>